<mxfile host="app.diagrams.net" agent="Mozilla/5.0 (X11; Linux x86_64; rv:128.0) Gecko/20100101 Firefox/128.0" version="26.0.16">
  <diagram name="Page-1" id="QH7Fv6PEZ9f8l62CSZsM">
    <mxGraphModel dx="950" dy="1286" grid="1" gridSize="10" guides="1" tooltips="1" connect="1" arrows="1" fold="1" page="1" pageScale="1" pageWidth="1100" pageHeight="850" math="0" shadow="0">
      <root>
        <mxCell id="0" />
        <mxCell id="1" parent="0" />
        <mxCell id="UUc09GRs5S-D-eI1TzaW-1" value="0" style="rounded=0;whiteSpace=wrap;html=1;" vertex="1" parent="1">
          <mxGeometry x="80" y="270" width="20" height="20" as="geometry" />
        </mxCell>
        <mxCell id="UUc09GRs5S-D-eI1TzaW-2" value="0" style="rounded=0;whiteSpace=wrap;html=1;" vertex="1" parent="1">
          <mxGeometry x="100" y="270" width="220" height="20" as="geometry" />
        </mxCell>
        <mxCell id="UUc09GRs5S-D-eI1TzaW-6" value="&lt;div&gt;ISA&lt;/div&gt;" style="text;html=1;align=center;verticalAlign=middle;whiteSpace=wrap;rounded=0;fontSize=16;" vertex="1" parent="1">
          <mxGeometry x="290" y="220" width="60" height="30" as="geometry" />
        </mxCell>
        <mxCell id="UUc09GRs5S-D-eI1TzaW-8" value="&lt;div&gt;IMP&lt;/div&gt;" style="text;html=1;align=center;verticalAlign=middle;whiteSpace=wrap;rounded=0;fontSize=16;" vertex="1" parent="1">
          <mxGeometry x="680" y="220" width="60" height="30" as="geometry" />
        </mxCell>
        <mxCell id="UUc09GRs5S-D-eI1TzaW-9" value="0" style="rounded=0;whiteSpace=wrap;html=1;" vertex="1" parent="1">
          <mxGeometry x="620" y="270" width="220" height="20" as="geometry" />
        </mxCell>
        <mxCell id="UUc09GRs5S-D-eI1TzaW-10" value="0" style="rounded=0;whiteSpace=wrap;html=1;" vertex="1" parent="1">
          <mxGeometry x="560" y="270" width="20" height="20" as="geometry" />
        </mxCell>
        <mxCell id="UUc09GRs5S-D-eI1TzaW-11" value="0" style="rounded=0;whiteSpace=wrap;html=1;" vertex="1" parent="1">
          <mxGeometry x="580" y="270" width="20" height="20" as="geometry" />
        </mxCell>
        <mxCell id="UUc09GRs5S-D-eI1TzaW-13" value="" style="endArrow=none;dashed=1;html=1;strokeWidth=2;rounded=0;jumpSize=4;" edge="1" parent="1">
          <mxGeometry width="50" height="50" relative="1" as="geometry">
            <mxPoint x="540" y="420" as="sourcePoint" />
            <mxPoint x="540" y="220" as="targetPoint" />
          </mxGeometry>
        </mxCell>
        <mxCell id="UUc09GRs5S-D-eI1TzaW-3" value="0" style="rounded=0;whiteSpace=wrap;html=1;" vertex="1" parent="1">
          <mxGeometry x="320" y="270" width="220" height="20" as="geometry" />
        </mxCell>
        <mxCell id="UUc09GRs5S-D-eI1TzaW-5" value="0" style="rounded=0;whiteSpace=wrap;html=1;" vertex="1" parent="1">
          <mxGeometry x="540" y="270" width="20" height="20" as="geometry" />
        </mxCell>
        <mxCell id="UUc09GRs5S-D-eI1TzaW-14" value="Pointer / Value" style="text;html=1;align=center;verticalAlign=middle;whiteSpace=wrap;rounded=0;" vertex="1" parent="1">
          <mxGeometry x="150" y="250" width="110" height="20" as="geometry" />
        </mxCell>
        <mxCell id="UUc09GRs5S-D-eI1TzaW-16" value="Index" style="text;html=1;align=center;verticalAlign=middle;whiteSpace=wrap;rounded=0;" vertex="1" parent="1">
          <mxGeometry x="375" y="250" width="110" height="20" as="geometry" />
        </mxCell>
        <mxCell id="UUc09GRs5S-D-eI1TzaW-17" value="r" style="text;html=1;align=center;verticalAlign=middle;whiteSpace=wrap;rounded=0;" vertex="1" parent="1">
          <mxGeometry x="540" y="250" width="20" height="20" as="geometry" />
        </mxCell>
        <mxCell id="UUc09GRs5S-D-eI1TzaW-18" value="w" style="text;html=1;align=center;verticalAlign=middle;whiteSpace=wrap;rounded=0;" vertex="1" parent="1">
          <mxGeometry x="560" y="250" width="20" height="20" as="geometry" />
        </mxCell>
        <mxCell id="UUc09GRs5S-D-eI1TzaW-20" value="d" style="text;html=1;align=center;verticalAlign=middle;whiteSpace=wrap;rounded=0;" vertex="1" parent="1">
          <mxGeometry x="580" y="250" width="20" height="20" as="geometry" />
        </mxCell>
        <mxCell id="UUc09GRs5S-D-eI1TzaW-21" value="c" style="text;html=1;align=center;verticalAlign=middle;whiteSpace=wrap;rounded=0;" vertex="1" parent="1">
          <mxGeometry x="600" y="250" width="20" height="20" as="geometry" />
        </mxCell>
        <mxCell id="UUc09GRs5S-D-eI1TzaW-22" value="&lt;span class=&quot;Grek&quot; lang=&quot;grc-Grek&quot;&gt;Î»&lt;/span&gt;" style="text;html=1;align=center;verticalAlign=middle;whiteSpace=wrap;rounded=0;" vertex="1" parent="1">
          <mxGeometry x="620" y="250" width="220" height="20" as="geometry" />
        </mxCell>
        <mxCell id="UUc09GRs5S-D-eI1TzaW-25" value="&lt;div align=&quot;center&quot;&gt;Tag&lt;/div&gt;" style="text;whiteSpace=wrap;html=1;align=center;verticalAlign=middle;" vertex="1" parent="1">
          <mxGeometry x="75" y="250" width="30" height="20" as="geometry" />
        </mxCell>
        <mxCell id="UUc09GRs5S-D-eI1TzaW-26" value="1" style="rounded=0;whiteSpace=wrap;html=1;" vertex="1" parent="1">
          <mxGeometry x="80" y="300" width="20" height="20" as="geometry" />
        </mxCell>
        <mxCell id="UUc09GRs5S-D-eI1TzaW-27" value="ra.pointer" style="rounded=0;whiteSpace=wrap;html=1;" vertex="1" parent="1">
          <mxGeometry x="100" y="300" width="220" height="20" as="geometry" />
        </mxCell>
        <mxCell id="UUc09GRs5S-D-eI1TzaW-28" value="sp.lambda" style="rounded=0;whiteSpace=wrap;html=1;" vertex="1" parent="1">
          <mxGeometry x="620" y="330" width="220" height="20" as="geometry" />
        </mxCell>
        <mxCell id="UUc09GRs5S-D-eI1TzaW-29" value="1" style="rounded=0;whiteSpace=wrap;html=1;" vertex="1" parent="1">
          <mxGeometry x="560" y="330" width="20" height="20" as="geometry" />
        </mxCell>
        <mxCell id="UUc09GRs5S-D-eI1TzaW-30" value="0" style="rounded=0;whiteSpace=wrap;html=1;" vertex="1" parent="1">
          <mxGeometry x="580" y="330" width="20" height="20" as="geometry" />
        </mxCell>
        <mxCell id="UUc09GRs5S-D-eI1TzaW-31" value="ra.index" style="rounded=0;whiteSpace=wrap;html=1;" vertex="1" parent="1">
          <mxGeometry x="320" y="300" width="220" height="20" as="geometry" />
        </mxCell>
        <mxCell id="UUc09GRs5S-D-eI1TzaW-32" value="1" style="rounded=0;whiteSpace=wrap;html=1;" vertex="1" parent="1">
          <mxGeometry x="540" y="330" width="20" height="20" as="geometry" />
        </mxCell>
        <mxCell id="UUc09GRs5S-D-eI1TzaW-33" value="x" style="rounded=0;whiteSpace=wrap;html=1;" vertex="1" parent="1">
          <mxGeometry x="600" y="330" width="20" height="20" as="geometry" />
        </mxCell>
        <mxCell id="UUc09GRs5S-D-eI1TzaW-34" value="1" style="rounded=0;whiteSpace=wrap;html=1;" vertex="1" parent="1">
          <mxGeometry x="80" y="330" width="20" height="20" as="geometry" />
        </mxCell>
        <mxCell id="UUc09GRs5S-D-eI1TzaW-35" value="sp.pointer" style="rounded=0;whiteSpace=wrap;html=1;" vertex="1" parent="1">
          <mxGeometry x="100" y="330" width="220" height="20" as="geometry" />
        </mxCell>
        <mxCell id="UUc09GRs5S-D-eI1TzaW-36" value="sp.index" style="rounded=0;whiteSpace=wrap;html=1;" vertex="1" parent="1">
          <mxGeometry x="320" y="330" width="220" height="20" as="geometry" />
        </mxCell>
        <mxCell id="UUc09GRs5S-D-eI1TzaW-37" value="0" style="rounded=0;whiteSpace=wrap;html=1;" vertex="1" parent="1">
          <mxGeometry x="560" y="300" width="20" height="20" as="geometry" />
        </mxCell>
        <mxCell id="UUc09GRs5S-D-eI1TzaW-38" value="1" style="rounded=0;whiteSpace=wrap;html=1;" vertex="1" parent="1">
          <mxGeometry x="580" y="300" width="20" height="20" as="geometry" />
        </mxCell>
        <mxCell id="UUc09GRs5S-D-eI1TzaW-39" value="0" style="rounded=0;whiteSpace=wrap;html=1;" vertex="1" parent="1">
          <mxGeometry x="540" y="300" width="20" height="20" as="geometry" />
        </mxCell>
        <mxCell id="UUc09GRs5S-D-eI1TzaW-41" value="ra.lambda" style="rounded=0;whiteSpace=wrap;html=1;" vertex="1" parent="1">
          <mxGeometry x="620" y="300" width="220" height="20" as="geometry" />
        </mxCell>
        <mxCell id="UUc09GRs5S-D-eI1TzaW-42" value="zero" style="text;whiteSpace=wrap;html=1;align=center;verticalAlign=middle;" vertex="1" parent="1">
          <mxGeometry x="50" y="270" width="30" height="20" as="geometry" />
        </mxCell>
        <mxCell id="UUc09GRs5S-D-eI1TzaW-43" value="ra" style="text;whiteSpace=wrap;html=1;align=center;verticalAlign=middle;" vertex="1" parent="1">
          <mxGeometry x="50" y="300" width="30" height="20" as="geometry" />
        </mxCell>
        <mxCell id="UUc09GRs5S-D-eI1TzaW-44" value="sp" style="text;whiteSpace=wrap;html=1;align=center;verticalAlign=middle;" vertex="1" parent="1">
          <mxGeometry x="50" y="330" width="30" height="20" as="geometry" />
        </mxCell>
        <mxCell id="UUc09GRs5S-D-eI1TzaW-47" value="1" style="rounded=0;whiteSpace=wrap;html=1;" vertex="1" parent="1">
          <mxGeometry x="80" y="360" width="20" height="20" as="geometry" />
        </mxCell>
        <mxCell id="UUc09GRs5S-D-eI1TzaW-48" value="got.ptr" style="rounded=0;whiteSpace=wrap;html=1;" vertex="1" parent="1">
          <mxGeometry x="100" y="360" width="220" height="20" as="geometry" />
        </mxCell>
        <mxCell id="UUc09GRs5S-D-eI1TzaW-49" value="0" style="rounded=0;whiteSpace=wrap;html=1;" vertex="1" parent="1">
          <mxGeometry x="320" y="360" width="220" height="20" as="geometry" />
        </mxCell>
        <mxCell id="UUc09GRs5S-D-eI1TzaW-50" value="gp" style="text;whiteSpace=wrap;html=1;align=center;verticalAlign=middle;" vertex="1" parent="1">
          <mxGeometry x="50" y="360" width="30" height="20" as="geometry" />
        </mxCell>
        <mxCell id="UUc09GRs5S-D-eI1TzaW-51" value="x" style="rounded=0;whiteSpace=wrap;html=1;" vertex="1" parent="1">
          <mxGeometry x="560" y="360" width="20" height="20" as="geometry" />
        </mxCell>
        <mxCell id="UUc09GRs5S-D-eI1TzaW-52" value="0" style="rounded=0;whiteSpace=wrap;html=1;" vertex="1" parent="1">
          <mxGeometry x="580" y="360" width="20" height="20" as="geometry" />
        </mxCell>
        <mxCell id="UUc09GRs5S-D-eI1TzaW-53" value="1" style="rounded=0;whiteSpace=wrap;html=1;" vertex="1" parent="1">
          <mxGeometry x="540" y="360" width="20" height="20" as="geometry" />
        </mxCell>
        <mxCell id="UUc09GRs5S-D-eI1TzaW-54" value="got.lambda" style="rounded=0;whiteSpace=wrap;html=1;" vertex="1" parent="1">
          <mxGeometry x="620" y="360" width="220" height="20" as="geometry" />
        </mxCell>
        <mxCell id="UUc09GRs5S-D-eI1TzaW-55" value="x" style="rounded=0;whiteSpace=wrap;html=1;" vertex="1" parent="1">
          <mxGeometry x="80" y="390" width="20" height="20" as="geometry" />
        </mxCell>
        <mxCell id="UUc09GRs5S-D-eI1TzaW-56" value="x" style="rounded=0;whiteSpace=wrap;html=1;" vertex="1" parent="1">
          <mxGeometry x="100" y="390" width="220" height="20" as="geometry" />
        </mxCell>
        <mxCell id="UUc09GRs5S-D-eI1TzaW-57" value="x" style="rounded=0;whiteSpace=wrap;html=1;" vertex="1" parent="1">
          <mxGeometry x="320" y="390" width="220" height="20" as="geometry" />
        </mxCell>
        <mxCell id="UUc09GRs5S-D-eI1TzaW-58" value="x" style="rounded=0;whiteSpace=wrap;html=1;" vertex="1" parent="1">
          <mxGeometry x="560" y="390" width="20" height="20" as="geometry" />
        </mxCell>
        <mxCell id="UUc09GRs5S-D-eI1TzaW-59" value="x" style="rounded=0;whiteSpace=wrap;html=1;" vertex="1" parent="1">
          <mxGeometry x="580" y="390" width="20" height="20" as="geometry" />
        </mxCell>
        <mxCell id="UUc09GRs5S-D-eI1TzaW-60" value="x" style="rounded=0;whiteSpace=wrap;html=1;" vertex="1" parent="1">
          <mxGeometry x="540" y="390" width="20" height="20" as="geometry" />
        </mxCell>
        <mxCell id="UUc09GRs5S-D-eI1TzaW-61" value="x" style="rounded=0;whiteSpace=wrap;html=1;" vertex="1" parent="1">
          <mxGeometry x="620" y="390" width="220" height="20" as="geometry" />
        </mxCell>
        <mxCell id="UUc09GRs5S-D-eI1TzaW-62" value="x4-x31" style="text;whiteSpace=wrap;html=1;align=center;verticalAlign=middle;" vertex="1" parent="1">
          <mxGeometry x="30" y="390" width="50" height="20" as="geometry" />
        </mxCell>
      </root>
    </mxGraphModel>
  </diagram>
</mxfile>
